<?xml version="1.0" encoding="utf-8"?><svg xmlns="http://www.w3.org/2000/svg" xmlns:xlink="http://www.w3.org/1999/xlink"><symbol fill="none" viewBox="0 0 75 90" id="arrow" xmlns="http://www.w3.org/2000/svg"><path d="M8.152 73.535l.067-1.873c1.402.045 2.826.039 4.245-.05l.1 1.865a48.574 48.574 0 01-4.412.058zm8.78-.48l-.266-1.856a55.327 55.327 0 004.174-.769l.422 1.824a43.288 43.288 0 01-4.33.802zM25.5 71.15l-.562-1.783a45.527 45.527 0 003.997-1.434l.701 1.743A69.635 69.635 0 0125.5 71.15zm8.137-3.29l-.848-1.685a50.302 50.302 0 003.715-2.043l.968 1.597a44.26 44.26 0 01-3.834 2.132zm7.514-4.512l-1.098-1.532a48 48 0 003.334-2.613l1.226 1.425a51.835 51.835 0 01-3.462 2.72zm6.685-5.685l-1.329-1.329a50.873 50.873 0 002.866-3.121l1.446 1.198a50.023 50.023 0 01-2.983 3.252zm5.63-6.711l-1.54-1.078c.279-.404.564-.826.85-1.248a44.97 44.97 0 001.417-2.316l1.624.931c-.48.823-.954 1.628-1.479 2.411-.276.446-.561.868-.871 1.3zm4.376-7.604l-1.709-.786c.141-.323.3-.639.44-.962.424-.969.812-1.953 1.184-2.944l1.768.65a48.385 48.385 0 01-1.212 3.054c-.175.308-.323.648-.471.988zm1.173-8.738c.37-1.357.687-2.736.946-4.12l1.842.338a58.356 58.356 0 01-.97 4.272l-1.818-.49zm1.555-8.308c.142-1.395.233-2.813.265-4.236l1.869.046a47.342 47.342 0 01-.283 4.37l-1.85-.18zm.205-8.472a48.254 48.254 0 00-.409-4.227l1.853-.244c.202 1.445.338 2.9.425 4.376l-1.869.095z" fill="#27CDC2"/><path d="M12.808 78.609l.996-1.063-5.216-4.866 5.237-4.827-.975-1.065-6.382 5.872 6.34 5.949z" fill="#27CDC2"/></symbol><symbol id="pdf" viewBox="0 0 26.6 31.2" xmlns="http://www.w3.org/2000/svg"><style>.bst0{fill:#fff}</style><path class="bst0" d="M26.4 6.6L20 .2c0-.1-.1-.1-.2-.1H4.2C3.6 0 3.1.2 2.7.6c-.4.4-.6.9-.6 1.5v10.3c0 .1.1.3.2.4.1.1.2.2.4.2s.3-.1.4-.2c.1-.1.2-.2.2-.4V2.1c0-.3.1-.5.3-.7.2-.2.4-.3.7-.3h14.9V7c0 .1.1.3.2.4.1.1.2.2.4.2h5.8v21.6c0 .3-.1.5-.3.7-.2.2-.4.3-.7.3H4.2c-.3 0-.5-.1-.7-.3-.2-.2-.3-.4-.3-.7v-2.8c0-.1-.1-.3-.2-.4s-.2-.2-.4-.2-.2.1-.3.2-.2.2-.2.4v2.8c0 .5.2 1.1.6 1.5.4.4.9.6 1.4.6h20.3c.5 0 1.1-.2 1.4-.6.4-.4.6-.9.6-1.5V6.8c.1-.1.1-.1 0-.2zm-6.2-4.8l4.6 4.6h-4.6V1.8z"/><path class="bst0" d="M10.8 17.4h-.9v3.8H11c.6 0 1.1-.1 1.6-.5.2-.2.3-.4.4-.7.1-.2.1-.5.1-.8-.1-1.1-.9-1.8-2.3-1.8zm-5.4 0h-1v2.2h1.7c.2-.1.4-.1.5-.3.1-.1.2-.3.3-.4.1-.2.1-.3.1-.5s0-.3-.1-.5c-.1-.1-.2-.3-.3-.4-.4 0-.8-.1-1.2-.1z"/><path class="bst0" d="M22.3 23v-7.3c0-.2 0-.5-.1-.7-.1-.2-.2-.4-.4-.6-.2-.2-.4-.3-.6-.4H1.7c-.2 0-.5 0-.7.1-.2.1-.4.2-.6.4-.2.2-.3.4-.4.6V23c0 .2 0 .5.1.7.1.2.2.4.4.6.2.2.4.3.6.4.2.1.4.1.7.1h18.9c.2 0 .5 0 .7-.1.2-.1.4-.2.6-.4.2-.2.3-.4.4-.6-.1-.3-.1-.5-.1-.7zM7.2 20c-.5.4-1.2.5-1.8.5h-1v1.6h-.9v-5.6h1.9c.6 0 1.3.2 1.8.5.2.2.4.4.5.7.1.3.1.5.1.8 0 .3 0 .6-.1.8-.1.3-.3.6-.5.7zm5.9 1.4c-.7.6-1.5.8-2.4.8H8.9v-5.6h1.9c.8-.1 1.6.2 2.3.7.3.3.5.6.6.9.1.4.2.7.2 1.1 0 .4 0 .8-.2 1.1-.1.4-.3.7-.6 1zm5.7-4H16V19h2.5v.9H16v2.3h-.9v-5.7h3.7v.9z"/></symbol></svg>