<svg width="75" height="90" viewBox="0 0 75 90" fill="none" xmlns="http://www.w3.org/2000/svg">
<path d="M8.15237 73.5352L8.21878 71.6615C9.62063 71.7067 11.0447 71.7008 12.4644 71.6121L12.5641 73.4772C11.0859 73.5607 9.61281 73.5856 8.15237 73.5352ZM16.9315 73.0558L16.6656 71.1991C18.0542 70.9955 19.465 70.741 20.8395 70.4301L21.2619 72.2539C19.831 72.6009 18.3787 72.8576 16.9315 73.0558ZM25.501 71.1491L24.9392 69.3656C26.2751 68.9569 27.6237 68.4728 28.9359 67.9323L29.6372 69.6755C28.2664 70.2106 26.8934 70.7043 25.501 71.1491ZM33.6385 67.8596L32.7903 66.1737C34.0566 65.5525 35.2939 64.8579 36.5045 64.1314L37.4729 65.728C36.24 66.5055 34.9366 67.2118 33.6385 67.8596ZM41.1524 63.3466L40.0542 61.8148C41.2018 61 42.3205 60.112 43.3881 59.2015L44.6138 60.6272C43.507 61.5811 42.3393 62.4883 41.1524 63.3466ZM47.8372 57.6621L46.5084 56.3332C47.5129 55.3346 48.4566 54.2891 49.3736 53.2118L50.8204 54.4101C49.8567 55.548 48.8737 56.6369 47.8372 57.6621ZM53.4676 50.9507L51.9273 49.8735C52.2055 49.4687 52.4912 49.0469 52.7768 48.6251C53.2695 47.8686 53.7525 47.0876 54.194 46.3087L55.8182 47.2403C55.3374 48.0627 54.864 48.8681 54.3394 49.6512C54.0634 50.0975 53.7778 50.5193 53.4676 50.9507ZM57.8425 43.3471L56.1345 42.5611C56.2754 42.238 56.4335 41.9224 56.5745 41.5994C56.9975 40.6303 57.3864 39.6463 57.7582 38.6549L59.5256 39.3049C59.156 40.3378 58.7522 41.3558 58.3144 42.3589C58.1393 42.667 57.9909 43.007 57.8425 43.3471ZM59.0163 34.6094C59.3852 33.2524 59.703 31.873 59.9621 30.4883L61.8045 30.827C61.5401 32.2701 61.2001 33.7005 60.8334 35.0989L59.0163 34.6094ZM60.5712 26.3012C60.7132 24.9059 60.804 23.4882 60.8362 22.0651L62.7046 22.1115C62.6746 23.576 62.586 25.0352 62.4218 26.4815L60.5712 26.3012ZM60.7763 17.8289C60.7009 16.4197 60.567 15.0051 60.367 13.6022L62.2199 13.3584C62.4221 14.8028 62.5582 16.2588 62.6454 17.734L60.7763 17.8289Z" fill="#27CDC2"/>
<path d="M12.8077 78.6088L13.8037 77.5462L8.58788 72.6803L13.8246 67.8535L12.8497 66.7884L6.46845 72.6599L12.8077 78.6088Z" fill="#27CDC2"/>
</svg>
